<?xml version="1.0" encoding="utf-8"?>
<!-- Generator: Adobe Illustrator 19.0.0, SVG Export Plug-In . SVG Version: 6.00 Build 0)  -->
<svg version="1.1" id="Layer_1" xmlns="http://www.w3.org/2000/svg" xmlns:xlink="http://www.w3.org/1999/xlink" x="0px" y="0px"
	 viewBox="0 0 96 96" style="enable-background:new 0 0 96 96;" xml:space="preserve">
<style type="text/css">
	.st0{fill:#93C54B;}
</style>
<g id="XMLID_2_">
	<path id="XMLID_6_" class="st0" d="M67.6,51.3v16.4c0,0.6-0.2,1.1-0.6,1.5s-0.9,0.6-1.5,0.6H52.4V56.8h-8.7v13.1H30.5
		c-0.6,0-1.1-0.2-1.5-0.6c-0.4-0.4-0.6-0.9-0.6-1.5V51.3c0,0,0-0.1,0-0.1s0-0.1,0-0.1L48,35l19.6,16.2
		C67.6,51.2,67.6,51.2,67.6,51.3z M75.3,49l-2.1,2.5c-0.2,0.2-0.4,0.3-0.7,0.4h-0.1c-0.3,0-0.5-0.1-0.7-0.2L48,31.9L24.4,51.6
		c-0.3,0.2-0.5,0.3-0.8,0.2c-0.3,0-0.5-0.2-0.7-0.4L20.7,49c-0.2-0.2-0.3-0.5-0.2-0.8c0-0.3,0.1-0.6,0.4-0.7L45.4,27
		c0.7-0.6,1.6-0.9,2.6-0.9s1.9,0.3,2.6,0.9l8.3,7v-6.7c0-0.3,0.1-0.6,0.3-0.8c0.2-0.2,0.5-0.3,0.8-0.3h6.5c0.3,0,0.6,0.1,0.8,0.3
		c0.2,0.2,0.3,0.5,0.3,0.8v13.9l7.5,6.2c0.2,0.2,0.4,0.4,0.4,0.7S75.4,48.7,75.3,49z"/>
</g>
</svg>
